<mxfile host="app.diagrams.net" agent="Mozilla/5.0 (Windows NT 10.0; Win64; x64) AppleWebKit/537.36 (KHTML, like Gecko) Chrome/131.0.0.0 Safari/537.36" version="25.0.3">
  <diagram name="Page-1" id="e7e014a7-5840-1c2e-5031-d8a46d1fe8dd">
    <mxGraphModel dx="2525" dy="776" grid="1" gridSize="10" guides="1" tooltips="1" connect="1" arrows="1" fold="1" page="1" pageScale="1" pageWidth="1169" pageHeight="826" background="none" math="0" shadow="0">
      <root>
        <mxCell id="0" />
        <mxCell id="1" parent="0" />
        <mxCell id="jX_J1Z-5O2PqobAZvkKB-48" value="Пользователь" style="swimlane;whiteSpace=wrap" vertex="1" parent="1">
          <mxGeometry x="-530" y="128" width="210" height="570" as="geometry" />
        </mxCell>
        <mxCell id="jX_J1Z-5O2PqobAZvkKB-49" value="" style="ellipse;shape=startState;fillColor=#000000;strokeColor=#ff0000;" vertex="1" parent="jX_J1Z-5O2PqobAZvkKB-48">
          <mxGeometry x="100" y="40" width="30" height="30" as="geometry" />
        </mxCell>
        <mxCell id="jX_J1Z-5O2PqobAZvkKB-50" value="" style="edgeStyle=elbowEdgeStyle;elbow=horizontal;verticalAlign=bottom;endArrow=open;endSize=8;strokeColor=#FF0000;endFill=1;rounded=0" edge="1" parent="jX_J1Z-5O2PqobAZvkKB-48" source="jX_J1Z-5O2PqobAZvkKB-49" target="jX_J1Z-5O2PqobAZvkKB-51">
          <mxGeometry x="100" y="40" as="geometry">
            <mxPoint x="115" y="110" as="targetPoint" />
          </mxGeometry>
        </mxCell>
        <mxCell id="jX_J1Z-5O2PqobAZvkKB-51" value="Выбор вкладки" style="" vertex="1" parent="jX_J1Z-5O2PqobAZvkKB-48">
          <mxGeometry x="60" y="110" width="110" height="50" as="geometry" />
        </mxCell>
        <mxCell id="jX_J1Z-5O2PqobAZvkKB-52" value="Действие" style="" vertex="1" parent="jX_J1Z-5O2PqobAZvkKB-48">
          <mxGeometry x="60" y="212" width="110" height="50" as="geometry" />
        </mxCell>
        <mxCell id="jX_J1Z-5O2PqobAZvkKB-53" value="" style="endArrow=open;strokeColor=#FF0000;endFill=1;rounded=0" edge="1" parent="jX_J1Z-5O2PqobAZvkKB-48" source="jX_J1Z-5O2PqobAZvkKB-51" target="jX_J1Z-5O2PqobAZvkKB-52">
          <mxGeometry relative="1" as="geometry" />
        </mxCell>
        <mxCell id="jX_J1Z-5O2PqobAZvkKB-54" value="Ответ программы" style="" vertex="1" parent="jX_J1Z-5O2PqobAZvkKB-48">
          <mxGeometry x="60" y="342" width="110" height="50" as="geometry" />
        </mxCell>
        <mxCell id="jX_J1Z-5O2PqobAZvkKB-55" value="" style="endArrow=open;strokeColor=#FF0000;endFill=1;rounded=0" edge="1" parent="jX_J1Z-5O2PqobAZvkKB-48" source="jX_J1Z-5O2PqobAZvkKB-52" target="jX_J1Z-5O2PqobAZvkKB-54">
          <mxGeometry relative="1" as="geometry" />
        </mxCell>
        <mxCell id="jX_J1Z-5O2PqobAZvkKB-56" value="" style="edgeStyle=elbowEdgeStyle;elbow=horizontal;strokeColor=#FF0000;endArrow=open;endFill=1;rounded=0" edge="1" parent="jX_J1Z-5O2PqobAZvkKB-48" source="jX_J1Z-5O2PqobAZvkKB-54" target="jX_J1Z-5O2PqobAZvkKB-51">
          <mxGeometry width="100" height="100" relative="1" as="geometry">
            <mxPoint x="160" y="290" as="sourcePoint" />
            <mxPoint x="260" y="190" as="targetPoint" />
            <Array as="points">
              <mxPoint x="30" y="250" />
            </Array>
          </mxGeometry>
        </mxCell>
        <mxCell id="jX_J1Z-5O2PqobAZvkKB-82" value="Приложение" style="swimlane;whiteSpace=wrap" vertex="1" parent="1">
          <mxGeometry x="-320" y="128" width="280" height="570" as="geometry" />
        </mxCell>
        <mxCell id="jX_J1Z-5O2PqobAZvkKB-57" value="Приложение" style="direction=east;horizontal=1;verticalAlign=middle;" vertex="1" parent="jX_J1Z-5O2PqobAZvkKB-82">
          <mxGeometry x="30" y="164" width="80" height="178" as="geometry" />
        </mxCell>
        <mxCell id="jX_J1Z-5O2PqobAZvkKB-93" value="запрос к бд" style="" vertex="1" parent="jX_J1Z-5O2PqobAZvkKB-82">
          <mxGeometry x="170" y="122" width="70" height="28" as="geometry" />
        </mxCell>
        <mxCell id="jX_J1Z-5O2PqobAZvkKB-96" value="обработка события" style="" vertex="1" parent="jX_J1Z-5O2PqobAZvkKB-82">
          <mxGeometry x="130" y="172" width="110" height="50" as="geometry" />
        </mxCell>
        <mxCell id="jX_J1Z-5O2PqobAZvkKB-97" value="" style="endArrow=open;strokeColor=#FF0000;endFill=1;rounded=0;entryX=0;entryY=0.5;entryDx=0;entryDy=0;exitX=1;exitY=0.25;exitDx=0;exitDy=0;" edge="1" parent="jX_J1Z-5O2PqobAZvkKB-82" source="jX_J1Z-5O2PqobAZvkKB-57" target="jX_J1Z-5O2PqobAZvkKB-96">
          <mxGeometry relative="1" as="geometry">
            <mxPoint x="110" y="192" as="sourcePoint" />
            <mxPoint x="50" y="205" as="targetPoint" />
          </mxGeometry>
        </mxCell>
        <mxCell id="jX_J1Z-5O2PqobAZvkKB-98" value="" style="endArrow=open;strokeColor=#FF0000;endFill=1;rounded=0;entryX=0.5;entryY=1;entryDx=0;entryDy=0;exitX=0.5;exitY=0;exitDx=0;exitDy=0;" edge="1" parent="jX_J1Z-5O2PqobAZvkKB-82" source="jX_J1Z-5O2PqobAZvkKB-96" target="jX_J1Z-5O2PqobAZvkKB-93">
          <mxGeometry relative="1" as="geometry">
            <mxPoint x="340" y="263" as="sourcePoint" />
            <mxPoint x="130" y="318" as="targetPoint" />
          </mxGeometry>
        </mxCell>
        <mxCell id="jX_J1Z-5O2PqobAZvkKB-102" value="Обработчик событий" style="" vertex="1" parent="jX_J1Z-5O2PqobAZvkKB-82">
          <mxGeometry x="130" y="262" width="130" height="50" as="geometry" />
        </mxCell>
        <mxCell id="jX_J1Z-5O2PqobAZvkKB-100" value="" style="endArrow=none;strokeColor=#FF0000;endFill=0;rounded=0;dashed=1;exitX=0.5;exitY=1;exitDx=0;exitDy=0;entryX=0.5;entryY=0;entryDx=0;entryDy=0;" edge="1" parent="jX_J1Z-5O2PqobAZvkKB-82" source="jX_J1Z-5O2PqobAZvkKB-96" target="jX_J1Z-5O2PqobAZvkKB-102">
          <mxGeometry relative="1" as="geometry">
            <mxPoint x="180" y="242" as="sourcePoint" />
            <mxPoint x="180" y="262" as="targetPoint" />
          </mxGeometry>
        </mxCell>
        <mxCell id="jX_J1Z-5O2PqobAZvkKB-103" value="" style="endArrow=open;strokeColor=#FF0000;endFill=1;rounded=0;entryX=1;entryY=0.75;entryDx=0;entryDy=0;exitX=0;exitY=0.5;exitDx=0;exitDy=0;" edge="1" parent="jX_J1Z-5O2PqobAZvkKB-82" source="jX_J1Z-5O2PqobAZvkKB-102" target="jX_J1Z-5O2PqobAZvkKB-57">
          <mxGeometry relative="1" as="geometry">
            <mxPoint x="120" y="219" as="sourcePoint" />
            <mxPoint x="140" y="207" as="targetPoint" />
          </mxGeometry>
        </mxCell>
        <mxCell id="jX_J1Z-5O2PqobAZvkKB-84" value="База данных" style="swimlane;whiteSpace=wrap" vertex="1" parent="1">
          <mxGeometry x="-40" y="128" width="280" height="570" as="geometry" />
        </mxCell>
        <mxCell id="jX_J1Z-5O2PqobAZvkKB-58" value="База данных" style="" vertex="1" parent="jX_J1Z-5O2PqobAZvkKB-84">
          <mxGeometry x="110" y="182" width="110" height="90" as="geometry" />
        </mxCell>
        <mxCell id="jX_J1Z-5O2PqobAZvkKB-95" value="Ответ БД" style="" vertex="1" parent="jX_J1Z-5O2PqobAZvkKB-84">
          <mxGeometry x="50" y="314" width="70" height="28" as="geometry" />
        </mxCell>
        <mxCell id="jX_J1Z-5O2PqobAZvkKB-101" value="" style="endArrow=open;strokeColor=#FF0000;endFill=1;rounded=0;entryX=1;entryY=0.5;entryDx=0;entryDy=0;exitX=0.5;exitY=1;exitDx=0;exitDy=0;" edge="1" parent="jX_J1Z-5O2PqobAZvkKB-84" source="jX_J1Z-5O2PqobAZvkKB-58" target="jX_J1Z-5O2PqobAZvkKB-95">
          <mxGeometry relative="1" as="geometry">
            <mxPoint x="10" y="262" as="sourcePoint" />
            <mxPoint x="160" y="331" as="targetPoint" />
          </mxGeometry>
        </mxCell>
        <mxCell id="jX_J1Z-5O2PqobAZvkKB-60" value="" style="endArrow=open;strokeColor=#FF0000;endFill=1;rounded=0;entryX=-0.025;entryY=0.321;entryDx=0;entryDy=0;exitX=1;exitY=0.5;exitDx=0;exitDy=0;entryPerimeter=0;" edge="1" parent="1" source="jX_J1Z-5O2PqobAZvkKB-52" target="jX_J1Z-5O2PqobAZvkKB-57">
          <mxGeometry relative="1" as="geometry">
            <mxPoint x="-340" y="310" as="sourcePoint" />
            <mxPoint x="-340" y="365" as="targetPoint" />
          </mxGeometry>
        </mxCell>
        <mxCell id="jX_J1Z-5O2PqobAZvkKB-86" value="" style="endArrow=open;strokeColor=#FF0000;endFill=1;rounded=0;entryX=0;entryY=0.25;entryDx=0;entryDy=0;exitX=1;exitY=0.5;exitDx=0;exitDy=0;" edge="1" parent="1" source="jX_J1Z-5O2PqobAZvkKB-93" target="jX_J1Z-5O2PqobAZvkKB-58">
          <mxGeometry relative="1" as="geometry">
            <mxPoint x="-140" y="383" as="sourcePoint" />
            <mxPoint x="-20" y="313" as="targetPoint" />
          </mxGeometry>
        </mxCell>
        <mxCell id="jX_J1Z-5O2PqobAZvkKB-88" value="" style="endArrow=open;strokeColor=#FF0000;endFill=1;rounded=0;entryX=1;entryY=0.5;entryDx=0;entryDy=0;exitX=0;exitY=0.75;exitDx=0;exitDy=0;" edge="1" parent="1" source="jX_J1Z-5O2PqobAZvkKB-57" target="jX_J1Z-5O2PqobAZvkKB-54">
          <mxGeometry relative="1" as="geometry">
            <mxPoint x="-380" y="476" as="sourcePoint" />
            <mxPoint x="-241" y="410" as="targetPoint" />
          </mxGeometry>
        </mxCell>
        <mxCell id="jX_J1Z-5O2PqobAZvkKB-90" value="" style="endArrow=open;strokeColor=#FF0000;endFill=1;rounded=0;entryX=1;entryY=1;entryDx=0;entryDy=0;exitX=0;exitY=0.5;exitDx=0;exitDy=0;" edge="1" parent="1" source="jX_J1Z-5O2PqobAZvkKB-95" target="jX_J1Z-5O2PqobAZvkKB-57">
          <mxGeometry relative="1" as="geometry">
            <mxPoint x="40" y="377" as="sourcePoint" />
            <mxPoint x="10" y="401" as="targetPoint" />
          </mxGeometry>
        </mxCell>
      </root>
    </mxGraphModel>
  </diagram>
</mxfile>
